<?xml version="1.0" encoding="utf-8"?>
<!-- Generator: Adobe Illustrator 16.0.0, SVG Export Plug-In . SVG Version: 6.00 Build 0)  -->
<!DOCTYPE svg PUBLIC "-//W3C//DTD SVG 1.1//EN" "http://www.w3.org/Graphics/SVG/1.1/DTD/svg11.dtd">
<svg version="1.1"
	 id="svg1306" xmlns:cc="http://creativecommons.org/ns#" xmlns:sodipodi="http://sodipodi.sourceforge.net/DTD/sodipodi-0.dtd" xmlns:svg="http://www.w3.org/2000/svg" xmlns:rdf="http://www.w3.org/1999/02/22-rdf-syntax-ns#" xmlns:inkscape="http://www.inkscape.org/namespaces/inkscape" xmlns:dc="http://purl.org/dc/elements/1.1/"
	 xmlns="http://www.w3.org/2000/svg" xmlns:xlink="http://www.w3.org/1999/xlink" x="0px" y="0px" width="24px" height="24px"
	 viewBox="0 0 24 24" enable-background="new 0 0 24 24" xml:space="preserve">
<g id="layer1">
	
		<linearGradient id="path7966_1_" gradientUnits="userSpaceOnUse" x1="1110.9063" y1="-872.9961" x2="1113.293" y2="-875.4395" gradientTransform="matrix(0.9659 0.2621 0.2588 -0.9782 -841.4915 -1139.4865)">
		<stop  offset="0" style="stop-color:#C17D10"/>
		<stop  offset="1" style="stop-color:#9B650C"/>
	</linearGradient>
	<path id="path7966" fill="url(#path7966_1_)" stroke="#8F5902" stroke-width="1.0063" stroke-linecap="round" d="M3.323,1.677
		C4.23,1.229,5.487,1.679,5.951,2.474l2.187,4.85C8.604,8.118,8.47,9.047,7.839,9.405C7.212,9.763,6.333,9.414,5.868,8.618
		L2.764,4.345C2.298,3.551,2.435,2.118,3.323,1.677z"/>
	
		<linearGradient id="path14575_1_" gradientUnits="userSpaceOnUse" x1="848.8545" y1="-1144.1396" x2="851.7165" y2="-1148.1252" gradientTransform="matrix(1 0 0 -1 -844 -1140)">
		<stop  offset="0" style="stop-color:#FFFFFF"/>
		<stop  offset="1" style="stop-color:#FFFFFF;stop-opacity:0"/>
	</linearGradient>
	
		<path id="path14575" opacity="0.4231" fill="none" stroke="url(#path14575_1_)" stroke-width="1.0057" stroke-linecap="round" enable-background="new    " d="
		M3.601,2.168c0.747-0.401,1.48-0.099,1.938,0.685l2.333,5.158L6.597,8.737L3.294,4.226C2.835,3.443,2.835,2.579,3.601,2.168z"/>
	
		<radialGradient id="path7968_1_" cx="855.8057" cy="-1729.667" r="14.4603" gradientTransform="matrix(0.2412 -0.1133 -0.3029 -0.6132 -720.7292 -952.1919)" gradientUnits="userSpaceOnUse">
		<stop  offset="0" style="stop-color:#FEF088"/>
		<stop  offset="0.5" style="stop-color:#FDE63A"/>
		<stop  offset="1" style="stop-color:#DAC203"/>
	</radialGradient>
	<path id="path7968" fill="url(#path7968_1_)" stroke="#C4A000" d="M7.448,12.425c-0.417,2.191,0.333,7.134,3.282,10.073
		c2.28,0.071,7.338-1.748,10.769-5.217c-4.844-2.308-8.147-8.04-10.716-6.791L7.448,12.425z"/>
	
		<linearGradient id="path7972_1_" gradientUnits="userSpaceOnUse" x1="166.7588" y1="-917.186" x2="167.3315" y2="-912.4092" gradientTransform="matrix(0.866 -0.5 -0.7975 -1.3813 -864.1789 -1162.0479)">
		<stop  offset="0" style="stop-color:#C4A000"/>
		<stop  offset="1" style="stop-color:#C4A000;stop-opacity:0"/>
	</linearGradient>
	<path id="path7972" fill="none" stroke="url(#path7972_1_)" stroke-linecap="round" d="M8.265,13.229
		c1.233,3.206,1.305,6.54,3.767,9.164"/>
	<path id="path7970" opacity="0.4615" fill="none" stroke="#FFFFFF" enable-background="new    " d="M8.042,12.741
		c-0.477,0.263-0.084,6.404,2.929,9.206c3.875-0.096,8.144-3.271,9.647-4.52c-4.983-3.061-7.829-7.549-9.693-6.43L8.042,12.741z"/>
	
		<linearGradient id="path7974_1_" gradientUnits="userSpaceOnUse" x1="173.9092" y1="-916.7871" x2="173.2823" y2="-911.6044" gradientTransform="matrix(0.866 -0.5 -0.798 -1.3821 -864.2116 -1162.0995)">
		<stop  offset="0" style="stop-color:#C4A000"/>
		<stop  offset="1" style="stop-color:#C4A000;stop-opacity:0"/>
	</linearGradient>
	<path id="path7974" fill="none" stroke="url(#path7974_1_)" stroke-linecap="round" d="M12.203,12.158
		c0.454-0.385,3.016,3.113,7.865,6.331"/>
	
		<linearGradient id="path7976_1_" gradientUnits="userSpaceOnUse" x1="171.3438" y1="-868.4414" x2="170.7613" y2="-864.029" gradientTransform="matrix(0.866 -0.5 -0.8435 -1.4609 -868.2902 -1164.0742)">
		<stop  offset="0" style="stop-color:#C4A000"/>
		<stop  offset="1" style="stop-color:#C4A000;stop-opacity:0"/>
	</linearGradient>
	<path id="path7976" fill="none" stroke="url(#path7976_1_)" stroke-linecap="round" d="M9.142,12.46
		c1.947,2.735,1.554,6.354,4.636,9.247"/>
	
		<linearGradient id="path7978_1_" gradientUnits="userSpaceOnUse" x1="168.5059" y1="-912.3379" x2="168.5059" y2="-907.5903" gradientTransform="matrix(0.866 -0.5 -0.8013 -1.3879 -861.3041 -1163.9769)">
		<stop  offset="0" style="stop-color:#C4A000"/>
		<stop  offset="1" style="stop-color:#C4A000;stop-opacity:0"/>
	</linearGradient>
	<path id="path7978" fill="none" stroke="url(#path7978_1_)" stroke-linecap="round" d="M11.749,12.415c0,0,4.289,6.685,5.865,7.725
		"/>
	
		<linearGradient id="path7980_1_" gradientUnits="userSpaceOnUse" x1="169.7588" y1="-850.1685" x2="168.1426" y2="-847.3601" gradientTransform="matrix(0.866 -0.5 -0.8615 -1.4921 -866.4547 -1166.8977)">
		<stop  offset="0" style="stop-color:#C4A000"/>
		<stop  offset="1" style="stop-color:#C4A000;stop-opacity:0"/>
	</linearGradient>
	<path id="path7980" fill="none" stroke="url(#path7980_1_)" stroke-linecap="round" d="M9.817,12.121
		c1.809,1.49,4.565,7.243,5.932,8.937"/>
	
		<linearGradient id="path7982_1_" gradientUnits="userSpaceOnUse" x1="837.5498" y1="-1144.459" x2="840.5607" y2="-1142.7094" gradientTransform="matrix(1.0149 0 0 -1.0059 -843.9674 -1140.1494)">
		<stop  offset="0" style="stop-color:#DAC203"/>
		<stop  offset="0.5" style="stop-color:#FDEC69"/>
		<stop  offset="1" style="stop-color:#FDEF7E"/>
	</linearGradient>
	
		<path id="path7982" fill="url(#path7982_1_)" stroke="#C4A000" stroke-width="1.0104" stroke-linecap="round" stroke-linejoin="round" d="
		M4.158,10.005l6.011-3.355c0.313,1.22-0.18,1.657,0.942,3.656l-4.149,2.313C6.2,10.843,5.093,10.877,4.158,10.005z"/>
	<path id="path11655" opacity="0.2473" fill="none" stroke="#FFFFFF" enable-background="new    " d="M7.061,11.634
		c-0.427-0.727-1.343-1.143-1.93-1.601L9.723,7.51c-0.011,0.756,0.297,1.578,0.459,2.311L7.061,11.634z"/>
	
		<linearGradient id="rect7984_1_" gradientUnits="userSpaceOnUse" x1="136.4121" y1="-1224.9956" x2="131.9155" y2="-1224.5319" gradientTransform="matrix(1.0191 -0.5884 -0.5884 -1.0191 -847.7783 -1158.6323)">
		<stop  offset="0" style="stop-color:#B30000"/>
		<stop  offset="0.5" style="stop-color:#FF5C5C"/>
		<stop  offset="1" style="stop-color:#C30000"/>
	</linearGradient>
	<path id="rect7984" fill="url(#rect7984_1_)" stroke="#690000" stroke-linecap="round" d="M5.846,11.579l5.003-2.816
		c0.25-0.14,0.571-0.057,0.717,0.188l0.383,0.646c0.144,0.245,0.061,0.556-0.19,0.699l-5.004,2.817
		c-0.251,0.143-0.571,0.059-0.715-0.188l-0.384-0.645C5.511,12.034,5.596,11.721,5.846,11.579z"/>
	<path id="path10193" fill="#FFFFFF" stroke="#8F5902" stroke-width="1.6552" stroke-linecap="round" stroke-linejoin="round" d="
		M4.834,3.251C4.738,3.604,4.366,3.815,4.001,3.72C3.639,3.625,3.423,3.263,3.52,2.907l0,0c0.097-0.353,0.469-0.563,0.833-0.468
		C4.716,2.534,4.932,2.898,4.834,3.251L4.834,3.251z"/>
	<path id="path3558" opacity="0.3173" fill="#FFFFFF" enable-background="new    " d="M14.24,21.508c0,0,0.791-0.256,1.143-0.482
		c-0.649-0.994-1.785-3.013-2.833-4.539C13.175,19.833,14.24,21.508,14.24,21.508z"/>
	<path id="path3560" opacity="0.3173" fill="#FFFFFF" enable-background="new    " d="M16.027,20.741l1.063-0.555
		c-1.021-0.949-3.918-5.172-3.918-5.172L16.027,20.741z"/>
	<path id="path3562" opacity="0.3173" fill="#FFFFFF" enable-background="new    " d="M18.396,19.377l1.279-0.893
		c-1.668-0.677-6.077-5.052-6.077-5.052C14.848,14.973,17.146,17.837,18.396,19.377z"/>
	<path id="path3565" opacity="0.3173" fill="#FFFFFF" enable-background="new    " d="M20.229,18.113l0.886-0.722
		c-1.736-0.767-6.552-5.068-6.552-5.068S17.749,17.029,20.229,18.113z"/>
	<path id="path2265" opacity="0.3173" fill="#FFFFFF" enable-background="new    " d="M12.478,22.027c0,0,0.63-0.143,1.074-0.232
		c-0.766-0.631-1.995-2.268-2.67-4.403C11.157,20.917,12.478,22.027,12.478,22.027z"/>
	<path id="path2267" opacity="0.3173" fill="#FFFFFF" enable-background="new    " d="M10.904,22.23l0.654-0.007
		c-1.206-1.288-1.647-2.744-2.323-4.811C9.164,19.809,10.904,22.23,10.904,22.23z"/>
</g>
</svg>
