<?xml version="1.0" encoding="utf-8"?>
<!-- Generator: Adobe Illustrator 16.0.0, SVG Export Plug-In . SVG Version: 6.00 Build 0)  -->
<!DOCTYPE svg PUBLIC "-//W3C//DTD SVG 1.1//EN" "http://www.w3.org/Graphics/SVG/1.1/DTD/svg11.dtd">
<svg version="1.1" id="Layer_1" xmlns="http://www.w3.org/2000/svg" xmlns:xlink="http://www.w3.org/1999/xlink" x="0px" y="0px"
	 width="512px" height="512px" viewBox="0 0 512 512" enable-background="new 0 0 512 512" xml:space="preserve">
<g>
	<path fill="#EFC75E" d="M480.438,400.487c-2.99-2.751-32.491-0.851-32.491-0.851l-0.337-31.212l-14.432-16.491l-34.203-0.563
		l-0.03-0.047l0,0c-0.146,0.465-0.019-34.331-0.019-34.331l-15.966-11.567c0,0-31.051-0.91-31.308-1.15l-2.495-31.898
		l-28.748-34.028c9.935-21.437,15.662-45.258,15.662-70.456c0-92.708-75.224-167.868-168.01-167.868
		C75.224,0.007,0,75.167,0,167.875C0,260.6,75.224,335.773,168.027,335.773c25.741,0,50.043-5.967,71.847-16.318L430.97,511.704
		c0,0,80.901,0.223,80.901,0.189L512,430.242C512,430.242,499.298,417.86,480.438,400.487z M135.968,176.195
		c-21.996,0-39.819-17.934-39.819-40.059s17.821-40.075,39.819-40.075c21.998,0,39.836,17.949,39.836,40.075
		S157.964,176.195,135.968,176.195z"/>
	<path fill="#CA9F30" d="M135.999,80.013c-30.924,0-55.993,25.07-55.993,55.993S105.075,192,135.999,192
		c30.939,0,55.993-25.07,55.993-55.993C191.992,105.084,166.939,80.013,135.999,80.013z M135.999,160.005
		c-13.247,0-23.997-10.751-23.997-23.997c0-13.262,10.752-23.997,23.997-23.997c13.247,0,23.996,10.735,23.996,23.997
		C159.995,149.253,149.246,160.005,135.999,160.005z"/>
	<path fill="#CA9F30" d="M278.318,294.355c-15.277,13.311-32.958,23.818-52.331,30.973l189.976,186.646h79.99L278.318,294.355z"/>
</g>
<g>
	<g opacity="0.3">
		<path fill="#35495E" d="M126.905,378.236h15.67c12.121,0,18.959-13.896,11.727-23.506l-61.423-80.915
			c-5.86-7.754-17.552-7.754-23.437,0l-61.424,80.95c-7.366,9.625-0.393,23.471,11.727,23.471h14.164
			c22.032,101.415,118.818,143.756,191.19,120.567c6.379-2.008,5.174-11.417-1.591-11.885
			C156.719,482.064,119.847,423.906,126.905,378.236z"/>
		<path fill="#35495E" d="M243.093,321.761h-15.668c-12.121,0-18.917,13.82-11.718,23.521l61.421,80.984
			c5.859,7.752,17.561,7.752,23.438,0l61.404-80.984c7.383-9.701,0.42-23.521-11.7-23.521h-14.196
			c-22.101-101.416-118.912-143.779-191.326-120.567c-6.336,1.991-5.123,11.398,1.632,11.859
			C213.262,217.941,250.159,276.075,243.093,321.761z"/>
	</g>
	<g>
		<path fill="#4FBA6F" d="M126.905,358.248h15.67c12.121,0,18.959-13.913,11.727-23.546l-61.422-80.877
			c-5.859-7.751-17.553-7.751-23.437,0L8.019,334.752c-7.365,9.636-0.394,23.496,11.727,23.496h14.164
			C55.941,459.665,152.728,502.003,225.1,478.816c6.378-2.007,5.173-11.417-1.591-11.886
			C156.719,462.074,119.847,403.917,126.905,358.248z"/>
		<path fill="#3B97D3" d="M243.093,301.757h-15.668c-12.121,0-18.917,13.817-11.718,23.502l61.421,80.986
			c5.859,7.784,17.561,7.784,23.438,0l61.404-80.986c7.383-9.685,0.42-23.502-11.7-23.502h-14.196
			c-22.101-101.4-118.912-143.764-191.326-120.552c-6.336,1.991-5.123,11.399,1.632,11.869
			C213.262,197.935,250.159,256.07,243.093,301.757z"/>
	</g>
</g>
</svg>
