<?xml version="1.0" encoding="utf-8"?>
<!-- Generator: Adobe Illustrator 16.0.0, SVG Export Plug-In . SVG Version: 6.00 Build 0)  -->
<!DOCTYPE svg PUBLIC "-//W3C//DTD SVG 1.1//EN" "http://www.w3.org/Graphics/SVG/1.1/DTD/svg11.dtd">
<svg version="1.1" id="Capa_1" xmlns="http://www.w3.org/2000/svg" xmlns:xlink="http://www.w3.org/1999/xlink" x="0px" y="0px"
	 width="512px" height="512px" viewBox="0 0 512 512" enable-background="new 0 0 512 512" xml:space="preserve">
<g id="c194_arrow">
	<g id="XMLID_1_">
		<g>
			<path fill="#FFFFFF" d="M435.619,235.93c14.721,14.62,13.938,39.28-1.79,55.03L312.99,411.779
				c-15.699,15.738-40.319,16.479-55.039,1.778c-14.681-14.698-13.921-39.317,1.779-55.01l57.81-57.84H103.57
				c-20.859,0-37.689-16.88-37.72-37.67c0-20.8,16.86-37.64,37.72-37.64h215.07l-58.1-58.07c-15.44-15.48-16.11-39.99-1.33-54.67
				c14.688-14.68,39.13-14.09,54.59,1.39l119.229,119.18c0.521,0.51,0.898,1.18,1.33,1.67
				C434.8,235.28,435.26,235.53,435.619,235.93z"/>
			<path fill="#EFC75E" d="M256.01,0.04C397.321,0.04,512.02,114.6,512,256.01c0,141.37-114.681,255.973-255.99,255.973
				C114.6,511.98,0,397.38,0,256.01C0,114.6,114.6,0.04,256.01,0.04z M433.829,290.96c15.729-15.75,16.511-40.41,1.79-55.03
				c-0.359-0.4-0.819-0.65-1.26-1.03c-0.432-0.49-0.812-1.16-1.33-1.67L313.8,114.05c-15.46-15.48-39.899-16.07-54.59-1.39
				c-14.78,14.68-14.11,39.19,1.33,54.67l58.1,58.07H103.57c-20.859,0-37.72,16.84-37.72,37.64c0.03,20.79,16.86,37.67,37.72,37.67
				h213.97l-57.81,57.84c-15.702,15.69-16.46,40.313-1.779,55.011c14.72,14.699,39.34,13.959,55.039-1.778L433.829,290.96z"/>
		</g>
	</g>
</g>
</svg>
