<?xml version="1.0" encoding="utf-8"?>
<!-- Generator: Adobe Illustrator 16.0.0, SVG Export Plug-In . SVG Version: 6.00 Build 0)  -->
<!DOCTYPE svg PUBLIC "-//W3C//DTD SVG 1.1//EN" "http://www.w3.org/Graphics/SVG/1.1/DTD/svg11.dtd">
<svg version="1.1" id="Layer_1" xmlns="http://www.w3.org/2000/svg" xmlns:xlink="http://www.w3.org/1999/xlink" x="0px" y="0px"
	 width="512px" height="512px" viewBox="0 0 512 512" enable-background="new 0 0 512 512" xml:space="preserve">
<g>
	<path fill="#EFC75E" d="M480.437,400.487c-2.991-2.751-32.492-0.849-32.492-0.849l-0.337-31.212l-14.43-16.493l-34.203-0.561
		l-0.032-0.047l0,0c-0.145,0.465-0.017-34.331-0.017-34.331l-15.966-11.567c0,0-31.051-0.912-31.308-1.151l-2.495-31.899
		l-28.748-34.028c9.935-21.437,15.662-45.258,15.662-70.456c0-92.708-75.224-167.868-168.01-167.868
		C75.224,0.007,0,75.167,0,167.875C0,260.6,75.224,335.773,168.027,335.773c25.741,0,50.043-5.967,71.847-16.318L430.97,511.704
		c0,0,80.901,0.223,80.901,0.191L512,430.242C512,430.242,499.298,417.86,480.437,400.487z M135.968,176.195
		c-21.996,0-39.819-17.934-39.819-40.059s17.821-40.075,39.819-40.075s39.836,17.949,39.836,40.075S157.964,176.195,135.968,176.195
		z"/>
	<path fill="#CA9F30" d="M135.999,80.013c-30.924,0-55.993,25.07-55.993,55.993S105.075,192,135.999,192
		c30.939,0,55.993-25.07,55.993-55.993S166.939,80.013,135.999,80.013z M135.999,160.005c-13.247,0-23.997-10.751-23.997-23.997
		c0-13.262,10.752-23.997,23.997-23.997c13.247,0,23.996,10.735,23.996,23.997C159.995,149.253,149.246,160.005,135.999,160.005z"/>
	<path fill="#CA9F30" d="M278.319,294.355c-15.278,13.311-32.957,23.82-52.33,30.973l189.976,186.648h79.99L278.319,294.355z"/>
</g>
</svg>
