<?xml version="1.0" encoding="utf-8"?>
<!-- Generator: Adobe Illustrator 16.0.0, SVG Export Plug-In . SVG Version: 6.00 Build 0)  -->
<!DOCTYPE svg PUBLIC "-//W3C//DTD SVG 1.1//EN" "http://www.w3.org/Graphics/SVG/1.1/DTD/svg11.dtd">
<svg version="1.1" id="color" xmlns="http://www.w3.org/2000/svg" xmlns:xlink="http://www.w3.org/1999/xlink" x="0px" y="0px"
	 width="512px" height="512px" viewBox="0 0 512 512" enable-background="new 0 0 512 512" xml:space="preserve">
<path fill="#3B97D3" d="M256,0C114.837,0,0,114.837,0,256s114.837,256,256,256s256-114.837,256-256S397.163,0,256,0z"/>
<path fill="#FFFFFF" d="M149.333,410.5h213.333c11.797,0,21.333-12.768,21.333-28.499s-9.536-28.501-21.333-28.501H149.333
	c-11.797,0-21.333,12.77-21.333,28.501S137.536,410.5,149.333,410.5z"/>
<path fill="#FFFFFF" d="M243.367,321.361c3.48,3.769,8.054,5.639,12.632,5.639c4.575,0,9.151-1.87,12.631-5.639l77.456-83.283
	c11.248-12.043,3.314-32.802-12.631-32.802h-53.623V89.96c0-14.146-10.654-25.626-23.833-25.626s-23.833,11.48-23.833,25.626
	v115.316h-53.623c-15.944,0-23.88,20.758-12.632,32.802L243.367,321.361z"/>
</svg>
